/* XPM */
static char *result[] = {
/* columns rows colors chars-per-pixel */
"128 128 50 1 ",
"  c #4F2913",
". c #522B14",
"X c #54331E",
"o c #58331C",
"O c #553521",
"+ c #5A3720",
"@ c #563826",
"# c #5C3A24",
"$ c #563B2A",
"% c #593D2C",
"& c #603F27",
"* c #603F28",
"= c #564635",
"- c #5A4233",
"; c #574837",
": c #574839",
"> c #5A4A3B",
", c #64442F",
"< c #664630",
"1 c #6B533F",
"2 c #5B4E40",
"3 c #5E5144",
"4 c #5F574B",
"5 c #605447",
"6 c #6D5745",
"7 c #655847",
"8 c #6F5946",
"9 c #61564A",
"0 c #635A4D",
"q c #695E4F",
"w c #635B51",
"e c #676056",
"r c #696156",
"t c #676158",
"y c #6A645A",
"u c #6E695E",
"i c #6C6760",
"p c #6D6861",
"a c #726D63",
"s c #757165",
"d c #7D7867",
"f c #767169",
"g c #79756A",
"h c #7E7A6C",
"j c #7F7B70",
"k c #817E72",
"l c #848175",
"z c #8A877A",
"x c #8C8A7D",
"c c None",
/* pixels */
"cccccccccccccccccccccccccccccccccccccccccc<<<<<<1<1<<<<<<<<<<<<<<<,,<,,,cccccccccccccccccccccccccccccccccccccccccccccccccccccccc",
"cccccccccccccccccccccccccccccccccccccccccc1<<<<<<<<<<<<<<<<<<<<<<<,<,,,<cccccccccccccccccccccccccccccccccccccccccccccccccccccccc",
"cccccccccccccccccccccccccccccccccccccccccc<<<<<<<<<<<<<<<<,,<,<,<,,,-,<<cccccccccccccccccccccccccccccccccccccccccccccccccccccccc",
"cccccccccccccccccccccccccccccccccccccccccc<<<<<*<<<<<<1<<,,,<<<<<,<,<<,-cccccccccccccccccccccccccccccccccccccccccccccccccccccccc",
"cccccccccccccccccccccccccccccccccccccccc,,kkgkkgkkkkkkzklllllllllllllllk,<,ccccccccccccccccccccccccccccccccccccccccccccccccccccc",
"cccccccccccccccccccccccccccccccccccccccc&,gkkkkgkkkkkkzkllllllllllllllkl,,,ccccccccccccccccccccccccccccccccccccccccccccccccccccc",
"cccccccccccccccccccccccccccccccccccccccc&&kkgkgkkkkkkkkkllllllllllllllll,<,ccccccccccccccccccccccccccccccccccccccccccccccccccccc",
"cccccccccccccccccccccccccccccccccccccccc&&kddkkkkkkkkkkklllllllllllllllllll<<ccccccccccccccccccccccccccccccccccccccccccccccccccc",
"cccccccccccccccccccccccccccccccccccccccc**gggkkkkkkkllllllllzllllllzlzlllkl<<ccccccccccccccccccccccccccccccccccccccccccccccccccc",
"cccccccccccccccccccccccccccccccccccccccc&&111866188111xxxxxxxxxxxxxxxxxxxxx<,ccccccccccccccccccccccccccccccccccccccccccccccccccc",
"cccccccccccccccccccccccccccccccccccccccc&&6118661<8811xxxxxxxxxxxxxxxxxxxxx<<ccccccccccccccccccccccccccccccccccccccccccccccccccc",
"ccccccccccccccccccccccccccccccccccccc<<<kgdddddhkkkkkk&o4118ryurrruryuuruyu##ccccccccccccccccccccccccccccccccccccccccccccccccccc",
"ccccccccccccccccccccccccccccccccccccc<<<skskdhggkkkkuk+&>44rrrrrrrrurruuruyo#ccccccccccccccccccccccccccccccccccccccccccccccccccc",
"ccccccccccccccccccccccccccccccccccccc<<&ksksdghdkksk8ko+7>>rryrrurururuquyu,#ccccccccccccccccccccccccccccccccccccccccccccccccccc",
"ccccccccccccccccccccccccccccccccccccc<<<kkkshhhdkkkkld.o>4>rryrrrrrrrururuyo#ccccccccccccccccccccccccccccccccccccccccccccccccccc",
"ccccccccccccccccccccccccccccccccccccc<&okukkdhhhk8k8kdoo4>7rryyrrurururruru#occccccccccccccccccccccccccccccccccccccccccccccccccc",
"ccccccccccccccccccccccccccccccccccccc<,,dhhhhhhdhhhhddo+222errrrrrrurururur..ccccccccccccccccccccccccccccccccccccccccccccccccccc",
"ccccccccccccccccccccccccccccccccccccc<-<hhhhdkhkhhhhddoX442errrrrurrrrururrooccccccccccccccccccccccccccccccccccccccccccccccccccc",
"ccccccccccccccccccccccccccccccccccccc<,<hhhkhdkhhhhhddX+222eerrrrrrurrrururooccccccccccccccccccccccccccccccccccccccccccccccccccc",
"ccccccccccccccccccccccccccccccccccccc<<<dhddhddhhhhdddX+224errrrrrururururu..ccccccccccccccccccccccccccccccccccccccccccccccccccc",
"ccccccccccccccccccccccccccccccccccccc,,,hhkhhhhhhhhhdd+X4247eeeeqrryqrruuruo.<<<<<<<<<<<cccccccccccccccccccccccccccccccccccccccc",
"ccccccccccccccccccccccccccccccccccccc,,,hjhhhhhhhhhhld+X244qweeerrryruurryr.o<*<<*<<<<<<cccccccccccccccccccccccccccccccccccccccc",
"ccccccccccccccccccccccccccccccccccccc<-,hkddkhhhhhhhddXX42222wwtqrrqrrqryuy..hjgjgjjhdkk<<<ccccccccccccccccccccccccccccccccccccc",
"ccccccccccccccccccccccccccccccccccccc,,,khhkhhhkhhhhddXX22224wttwrrrrqurruy..jhjjjgjjdkk,<<ccccccccccccccccccccccccccccccccccccc",
"ccccccccccccccccccccccccccccccccccccc<,,hhkhhhkhhlhhhhXX22442wtwrrrrrryryyy..jhjggjjhjjj<<<ccccccccccccccccccccccccccccccccccccc",
"ccccccccccccccccccccccccccccccccccccc<,,khhhhhhhhdhhhhXX22:24wwwwqwtywrryyu..djgjjhhjjhh<-<ccccccccccccccccccccccccccccccccccccc",
"ccccccccccccccccccccccccccccccccccccc<,,hhhhkhhhhhhhddX.22:424wwwwwrqwwwrur..khkghhhhhdk<<<ccccccccccccccccccccccccccccccccccccc",
"ccccccccccccccccccccccccccccccccccccc<,,hhhhhhhhhhhdddXX        ......o......zzzxzxxxxxx,,<ccccccccccccccccccccccccccccccccccccc",
"ccccccccccccccccccccccccccccccccccccc&,=hhhhhhhghhdddhOX        .............zzxxxzxxxxx,,,ccccccccccccccccccccccccccccccccccccc",
"ccccccccccccccccccccccccccccccccccccc,,,hkhhhhhhhdhdddXX         .... .....o.zzzzzxxxxxx<,<ccccccccccccccccccccccccccccccccccccc",
"ccccccccccccccccccccccccccccccccccccc,@@xxxxzzxzxxzzzz  4:4::44449999900qqrrqqyywryrryry.o.ccccccccccccccccccccccccccccccccccccc",
"ccccccccccccccccccccccccccccccccccccc#@=xxxxxxxxxxzzzz  :::2:44449999900rqwrryqyyyyrrryr...ccccccccccccccccccccccccccccccccccccc",
"ccccccccccccccccccccccccccccccccccccc###xxxxxxxzzzzzzz  ;;;4:44449999900eewrqrrqrurrryyy..occccccccccccccccccccccccccccccccccccc",
"ccccccccccccccccccccccccccccccccccccc##%hhpaapapsustuu  ;4;;:44444499400eqreerrrrrrrrrrr...ccccccccccccccccccccccccccccccccccccc",
"ccccccccccccccccccccccccccccccccccccc###ggaaaaaasuuuuu  2222:44439470704weqrererrrrrryrro.Xccccccccccccccccccccccccccccccccccccc",
"ccccccccccccccccccccccccccccccccccccc###ggaauuapuusutu  2;2;:44444499900eqweerrrrrryrryy...ccccccccccccccccccccccccccccccccccccc",
"ccccccccccccccccccccccccccccccccccccc###hdaaaaaauutttu  ;;;2::2::9994404ewqeeeeerrrrrryr...ccccccccccccccccccccccccccccccccccccc",
"ccccccccccccccccccccccccccccccccccccc#++hduaauaustuuut  ;;:22;;::9540400qeeeeerrqrrrrrrr..occccccccccccccccccccccccccccccccccccc",
"ccccccccccccccccccccccccccccccccccccc.XXggauuuuuuuuuuu  2;;;:::::0900400044eqeeerrrreerr...ccccccccccccccccccccccccccccccccccccc",
"cccccccccccccccccccccccccccccccccccccXo.ggaaauuuuuttut  ;;2;:::::0900400007eeeeeqrrreerr...ccccccccccccccccccccccccccccccccccccc",
"cccccccccccccccccccccccccccccccccccccX.Xggaaauyuputtuu  ;;;;;;;;:004w40w004reeeerreeeeer...ccccccccccccccccccccccccccccccccccccc",
"ccccccccccccccccccccccccccccccccccccc...gguuuuuuptuuut  ;;;;;;;;:000009040000qqeqrerrrre...ccccccccccccccccccccccccccccccccccccc",
"ccccccccccccccccccccccccccccccccccccc.. ggyuuuuuuutuutX ;;;;;;;;:4w4w9w00000wrqeqrerrrer. .ccccccccccccccccccccccccccccccccccccc",
"ccccccccccccccccccccccccccccccccccccc.  ssyuuyuyptuutu  ;;===;==-400000940044eqwwewreewe...ccccccccccccccccccccccccccccccccccccc",
"ccccccccccccccccccccccccccccccccccccc...ssuuuyypuuytyy  ====;;=;-w9w9w4944000wwewweeqeew. .ccccccccccccccccccccccccccccccccccccc",
"ccccccccccccccccccccccccccccccccccccc . ssyiyuypyuuuut                40eqqeeeqwwee4wewe ..ccccccccccccccccccccccccccccccccccccc",
"cccccccccccccccccccccccccccccccccccccX  sgiyiupyuytuuy                w90e0eweewewee0eew. .ccccccccccccccccccccccccccccccccccccc",
"ccccccccccccccccccccccccccccccccccccc   ssyiiypytuuuyu                40eqeeq0wqwe0eeewe . ccccccccccccccccccccccccccccccccccccc",
"ccccccccccccccccccccccccccccccccccccc   gfiiiiyuuyyypu                44qwewqeweeweeeeee   ccccccccccccccccccccccccccccccccccccc",
"ccccccccccccccccccccccccccccccccccccc   ssiytiypuupyuy;;77774dssssssss  qwweewqqwew0w4we   ccccccccccccccccccccccccccccccccccccc",
"ccccccccccccccccccccccccccccccccccccc   ssyiyppytypput==77447sssssssss  eweeewqwewwwewe4. .ccccccccccccccccccccccccccccccccccccc",
"ccccccccccccccccccccccccccccccccccccc   ssituyypuypyyw==77447sssssssss  wewqeeweewww00we  .ccccccccccccccccccccccccccccccccccccc",
"ccccccccccccccccccccccccccccccccccccc   asiiyptiuypyuu;=44wspfffssssss  $--==---%--=----cccccccccccccccccccccccccccccccccccccccc",
"ccccccccccccccccccccccccccccccccccccc   apiipyituuytyy==4w4sffpfssssss  =--===-----%---=cccccccccccccccccccccccccccccccccccccccc",
"ccccccccccccccccccccccccccccccccccccccccXXXXOOOOOOOXXOhhzllzllllllllll..34444424444   cccccccccccccccccccccccccccccccccccccccccc",
"ccccccccccccccccccccccccccccccccccccccccOXXXXOOOXXXOXOkklllllllgllllll..44444444444   cccccccccccccccccccccccccccccccccccccccccc",
"ccccccccccccccccccccccccccccccccccccc   ssusaaaapaassswwwwwww4ww4wwuua  44444444444444  cccccccccccccccccccccccccccccccccccccccc",
"ccccccccccccccccccccccccccccccccccccc   ssaaaaaaaaassgwww4w4wwwwww0aau  44444444444w44  cccccccccccccccccccccccccccccccccccccccc",
"ccccccccccccccccccccccccccccccccccccc   asaapaapssaspp4ww4w4w4w4wwwuua  44444444444444 .cccccccccccccccccccccccccccccccccccccccc",
"ccccccccccccccccccccccccccccccccccccc   w040www444w4wwwwww4w4www4wwuau  4444444444444444  .ccccccccccccccccccccccccccccccccccccc",
"ccccccccccccccccccccccccccccccccccccc   4wwww4w4ww4wwwww4wwwwwwwwwwuua  4w44444444444444   ccccccccccccccccccccccccccccccccccccc",
"ccccccccccccccccccccccccccccccccccccc   ww4wwww4w4www44www4wwww44w4pau  4444444444444444   ccccccccccccccccccccccccccccccccccccc",
"ccccccccccccccccccccccccccccccccccccc   wwwwwwwww4w4w4www4www4www4wpuu  4444444w44444444   ccccccccccccccccccccccccccccccccccccc",
"ccccccccccccccccccccccccccccccccccccc   w4w4w4wwwwwwww4wwww44ww4wwwuuu  4444444444444444   ccccccccccccccccccccccccccccccccccccc",
"ccccccccccccccccccccccccccccccccccccc   4w4ww4w4ww4ww4www4www4w4wwwpuu. 4444444444444444   ccccccccccccccccccccccccccccccccccccc",
"ccccccccccccccccccccccccccccccccccccc   w4w4wwwwwwwwwww4www4wwwww44puu  444444444w444444   ccccccccccccccccccccccccccccccccccccc",
"cccccccccccccccccccccccccccccccccccccO  wwww4w4ww4w44www4wwwww4w4wwpuu  444443444444444w   ccccccccccccccccccccccccccccccccccccc",
"ccccccccccccccccccccccccccccccccccccc   4wwwwwwwwwww4wwww44ww4wwwwwpuu  ;====--=%:%:%2$%cccccccccccccccccccccccccccccccccccccccc",
"ccccccccccccccccccccccccccccccccccccc@  www44ww44w4w4ww4ww4ww4www44uuu  ---=----%=%%====cccccccccccccccccccccccccccccccccccccccc",
"cccccccccccccccccccccccccccccccccccccO  wwwwwwwww4www4wwwwwwwww4wwwuuu  $--=-=$-=:=%%$==cccccccccccccccccccccccccccccccccccccccc",
"ccccccccccccccccccccccccccccccccccccc=  www4wwwwwww4wwwwww4ww9wwww4puu  00q00gssggggffgg   ccccccccccccccccccccccccccccccccccccc",
"ccccccccccccccccccccccccccccccccccccc  Ow4www4ww4wwww4w4w4wwwwwwwwwypp  0q0qwgggggggfggg   ccccccccccccccccccccccccccccccccccccc",
"ccccccccccccccccccccccccccccccccccccc   wwwwwww4ww4wwwwww9w33333>44uuu  q0q0qdfgggggggfg   ccccccccccccccccccccccccccccccccccccc",
"cccccccccccccccccccccccccccccccccccccX. w4w4www44wwww4w4www3333344>uuu  0q0q0dggggggfggg   ccccccccccccccccccccccccccccccccccccc",
"ccccccccccccccccccccccccccccccccccccc   ww4w4w4ww4www4wwwww53355333puu  q0q00ggggggggfgg   ccccccccccccccccccccccccccccccccccccc",
"ccccccccccccccccccccccccccccccccccccc. .wwwwwwwwwww4442433333533331uru .0q0dgggfgggggggg   ccccccccccccccccccccccccccccccccccccc",
"ccccccccccccccccccccccccccccccccccccc   ww4wwww4w444444233352933333yyy. q0qdgggsggsggggg   ccccccccccccccccccccccccccccccccccccc",
"cccccccccccccccccccccccccccccccccccccX. wwwwww44www4444233539333733uyu. 0qqdggggddgggggg   ccccccccccccccccccccccccccccccccccccc",
"cccccccccccccccccccccccccccccccccccccccc@ O@@O @@$$$$$$$$$$-%OOOOOXOOOdddhhhhhhhhhdlhhhh   ccccccccccccccccccccccccccccccccccccc",
"cccccccccccccccccccccccccccccccccccccccc@ O OOOOO$$$$$$$$$$--OOOOOOOO+ddhhdhhhhhdldhhhhj   ccccccccccccccccccccccccccccccccccccc",
"ccccccccccccccccccccccccccccccccccccccccoOXOXXXXO$$$$$%%$%$%=OOOOOOOOOddkgkkkdkkkdkkhhhh   ccccccccccccccccccccccccccccccccccccc",
"ccccccccccccccccccccccccccccccccccccc . gggggggfggg@@@-%gggggggggggggfttttwqqwiwwqwirtrr   ccccccccccccccccccccccccccccccccccccc",
"ccccccccccccccccccccccccccccccccccccc.. ggggggfgfff@@@%-ffggggggggggggttyyiwyiwiryywtttt   ccccccccccccccccccccccccccccccccccccc",
"ccccccccccccccccccccccccccccccccccccc. .ttttttytiwi@@@ffitiiyttytettttttyyqiywiwywwitttt   ccccccccccccccccccccccccccccccccccccc",
"ccccccccccccccccccccccccccccccccccccc.. yytytyytywi@@@fftttyttttwywrrwyyiqywwiwityyttttt   ccccccccccccccccccccccccccccccccccccc",
"ccccccccccccccccccccccccccccccccccccc...tryyytyyiwq%@@fftttyytytyyyttrwrwiwiiwiqttttttte   ccccccccccccccccccccccccccccccccccccc",
"ccccccccccccccccccccccccccccccccccccc.. ryyrryytyyi%%%yytyttttyryyytyriwiwiwwiwyrrtttttt   ccccccccccccccccccccccccccccccccccccc",
"ccccccccccccccccccccccccccccccccccccc...wytyrrryiqi%2%yytytytyyrryyywyyywiwyyqiwytrttttt   ccccccccccccccccccccccccccccccccccccc",
"ccccccccccccccccccccccccccccccccccccc...iyyyrwyyyyy%%2yyyyytqyyyyywiwiyyyttrwiwiwyywwyyt   ccccccccccccccccccccccccccccccccccccc",
"ccccccccccccccccccccccccccccccccccccc..Xyyryyyyyqiy%%%wyttyyityywiwyyywyryrtiwiwiwwitttt  .ccccccccccccccccccccccccccccccccccccc",
"ccccccccccccccccccccccccccccccccccccc...ywiyyyyyyqp%22yytyyqttwyywiyyyrytrtryyrtiwiwttyt...ccccccccccccccccccccccccccccccccccccc",
"ccccccccccccccccccccccccccccccccccccc...yyyyqiqyyii%%%qiytytyyyyyyiwwyyyrttywytrwiwiyttt ..ccccccccccccccccccccccccccccccccccccc",
"ccccccccccccccccccccccccccccccccccccc...qiiwiqiyyyy%%%eyttytiwiiyyiyqiwytyterrttyqwiqyty   ccccccccccccccccccccccccccccccccccccc",
"ccccccccccccccccccccccccccccccccccccc...iiqiyywyryr%%%yytyytwyyqiqwiwyyittytrtytyiiwwytt  .ccccccccccccccccccccccccccccccccccccc",
"ccccccccccccccccccccccccccccccccccccc.X.yyqiyyiyyyi%<-yryytyyywywqiqiqiwrtttttrrwiwiiwyt   ccccccccccccccccccccccccccccccccccccc",
"ccccccccccccccccccccccccccccccccccccc. .qyiiqyyyyyi>%>yyytytiqiiiywiwiwirytyyttriwiwyyyt.  ccccccccccccccccccccccccccccccccccccc",
"ccccccccccccccccccccccccccccccccccccc...yryyyyyyyyr---yywiqywiywtyyyyqtyytyytyyyywtyytty  .ccccccccccccccccccccccccccccccccccccc",
"ccccccccccccccccccccccccccccccccccccc...yuyyyryyyyy<--yyiqiywyiqyyqytyyytqyytyqwyytttytt.. ccccccccccccccccccccccccccccccccccccc",
"ccccccccccccccccccccccccccccccccccccc...yyyyyyyyyyy---yyqiqyiiqiytyqyyyqyyywyttyywtttttt . ccccccccccccccccccccccccccccccccccccc",
"ccccccccccccccccccccccccccccccccccccc..oyyryyryyyyy%-<yryyiyiwiwyyyyywyyttyywyttyyttttty  .ccccccccccccccccccccccccccccccccccccc",
"ccccccccccccccccccccccccccccccccccccc...yyyyyryyyrr---yriyrywytityytyyrqyywyytttytttwyyw.  ccccccccccccccccccccccccccccccccccccc",
"cccccccccccccccccccccccccccccccccccccdkdoooo+OoOO@#----<----<>><-2<>>>#$$@%@OXOOXXXXXOOOqqqccccccccccccccccccccccccccccccccccccc",
"ccccccccccccccccccccccccccccccccccccchkdoXoOXooXX##-<------->>>><>3>22%@%@@@OOXXXXXXX XXqqqccccccccccccccccccccccccccccccccccccc",
"ccccccccccccccccccccccccccccccccccccchkko+OooOOoOO+-=---<---><<->1>><2$%@%@OOXXoXXXXXXOOqqqccccccccccccccccccccccccccccccccccccc",
"ccccccccccccccccccccccccccccccccccccco..ffffffffffffffffffffffffffffffpffff$%yyytiiiyyiy  .ccccccccccccccccccccccccccccccccccccc",
"ccccccccccccccccccccccccccccccccccccc.o.jffffffffffffffffffffffffffffffffff$%yttityyiiii.  ccccccccccccccccccccccccccccccccccccc",
"ccccccccccccccccccccccccccccccccccccc...fffffffffffffffffffffffffffffffffff%%iyiyyiiiiyi ..ccccccccccccccccccccccccccccccccccccc",
"ccccccccccccccccccccccccccccccccccccc.o.fffffffaapppiiiiiiiiiiypiiitiiitiii--wwwwwww9www . ccccccccccccccccccccccccccccccccccccc",
"cccccccccccccccccccccccccccccccccccccoo.pffpfaaafpiiiiiiiyiiyiiyiititiiiiiy-%wwwwwwwwwww. .ccccccccccccccccccccccccccccccccccccc",
"ccccccccccccccccccccccccccccccccccccc...fpfffaafapiiiiiiuuiiiiiutiiiiiiiiii%<wwwwwwwwwtw   ccccccccccccccccccccccccccccccccccccc",
"ccccccccccccccccccccccccccccccccccccco..ffpfappippiiiiiiiiiyiiiyiiiiiitiiii->wwwwwwwwwww ..ccccccccccccccccccccccccccccccccccccc",
"ccccccccccccccccccccccccccccccccccccc.X.ppffaipppppiiiiiiiiiiyiiiiiitiiiiii>-wqwwwwwwwwe ..ccccccccccccccccccccccccccccccccccccc",
"cccccccccccccccccccccccccccccccccccccoo.ksuupppppiipiiiiiiiiiiyiiiiiiiiiiii::wwwwwwwwwtw   ccccccccccccccccccccccccccccccccccccc",
"ccccccccccccccccccccccccccccccccccccco.ok8puppppppppiiiiiiiiiiiiitiiiiitiii:-wwwwwwwwwww  .ccccccccccccccccccccccccccccccccccccc",
"ccccccccccccccccccccccccccccccccccccc.o.afapppppippipiiiiiiiiiiiiitiitiiiii:-wtwwwwwwwqw...ccccccccccccccccccccccccccccccccccccc",
"ccccccccccccccccccccccccccccccccccccco..ffppppppippippiiiiiiiiiiiiiiiititit:-wwwwwwwwwqt...ccccccccccccccccccccccccccccccccccccc",
"ccccccccccccccccccccccccccccccccccccc...ffppppppaiipipiiiyiiiiiiitiiititiii->wwtwwwwwwwt  .ccccccccccccccccccccccccccccccccccccc",
"ccccccccccccccccccccccccccccccccccccc.o.pippapppiipippiiiiiwtttqtitiiiiiiii>-twwwwwwwwww  .ccccccccccccccccccccccccccccccccccccc",
"ccccccccccccccccccccccccccccccccccccco.opppppppppppipiiiiiiqtqttttiiiitiiii--wwwywwwwwww.  ccccccccccccccccccccccccccccccccccccc",
"cccccccccccccccccccccccccccccccccccccoo.ppappppppippiiiiiiiytttwtiiiiiiiiii--twwwwwwwwtw ..ccccccccccccccccccccccccccccccccccccc",
"ccccccccccccccccccccccccccccccccccccco.oppapapppppppppywtttttttqtiiiiiyiiiiOO43490wwwwww  .ccccccccccccccccccccccccccccccccccccc",
"ccccccccccccccccccccccccccccccccccccc..oppppppppppppppyywttttqtttiitiiiiitiOO3449wwwwwwy.. ccccccccccccccccccccccccccccccccccccc",
"ccccccccccccccccccccccccccccccccccccc.o.ppppppppiapappwyytywwttqwiiitiyiiiiOO9999wwwwwyw   ccccccccccccccccccccccccccccccccccccc",
"ccccccccccccccccccccccccccccccccccccco..ppppappppwywyywywtttttttttttiiiitit@O939990wwwww .Xccccccccccccccccccccccccccccccccccccc",
"ccccccccccccccccccccccccccccccccccccc.o.ppppppppaqiqtwyyywyytyywttwiiiiitti@O393999wwwww.. ccccccccccccccccccccccccccccccccccccc",
"ccccccccccccccccccccccccccccccccccccc..oappaappppiwyttywwyywwwyytwtiiiiiiiy@O339399wwwww  .ccccccccccccccccccccccccccccccccccccc",
"cccccccccccccccccccccccccccccccccccccccco.X...o........Xo.........   .    .      .. X.. cccccccccccccccccccccccccccccccccccccccc",
"cccccccccccccccccccccccccccccccccccccccc.o..o...X.................  .           .  ... .cccccccccccccccccccccccccccccccccccccccc"
};
