/* XPM */
static char *result[] = {
/* columns rows colors chars-per-pixel */
"64 64 5 1 ",
"  c #AB5130",
". c #EC8C32",
"X c #FFCE00",
"o c #FFEE83",
"O c None",
/* pixels */
"OOOOOOOOOOOOOOOOOOOOOOOOOOOOOOOOOOOOOOOOOOOOOOOOOOOOOOOOOOOOOOOO",
"OOOOOOOOOOOOOOOOOOOOOOOOOOOOOOOOOOOOOOOOOOOOOOOOOOOOOOOOOOOOOOOO",
"OOOOOOOOOOOOOOOOOOOOOOOOOOOOOOOOOOOOOOOOOOOOOOOOOOOOOOOOOOOOOOOO",
"OOOOOOOOOOOOOOOOOOOOOOOOOOOOOOOOOOOOOOOOOOOOOOOOOOOOOOOOOOOOOOOO",
"OOOOOOOOOOOOOOOOOOOOOOOOOOOOOOOOOOOOOOOOOOOOOOOOOOOOOOOOOOOOOOOO",
"OOOOOOOOOOOOOOOOOOOOOOOOOOOOOOOOOOOOOOOOOOOOOOOOOOOOOOOOOOOOOOOO",
"OOOOOOOOOOOOOOOOOOOOOOOOOOOOOOOOOOOOOOOOOOOOOOOOOOOOOOOOOOOOOOOO",
"OOOOOOOOOOOOOOOOOOOOOOOOOOOOOOOOOOOOOOOOOOOOOOOOOOOOOOOOOOOOOOOO",
"OOOOOOOOOOOOOOOOOOOOOOOOOOOOOOOOOOOOOOOOOOOOOOOOOOOOOOOOOOOOOOOO",
"OOOOOOOOOOOOOOOOOOOOOOOOOOOOOOOOOOOOOOOOOOOOOOOOOOOOOOOOOOOOOOOO",
"OOOOOOOOOOOOOOOOOOOOOOOOOOOOOOOOOOOOOOOOOOOOOOOOOOOOOOOOOOOOOOOO",
"OOOOOOOOOOOOOOOOOOOOOOOOOOOOOOOOOOOOOOOOOOOOOOOOOOOOOOOOOOOOOOOO",
"OOOOOOOOOOOOOOOOOOOOOOOOOOOOOOOOOOOOOOOOOOOOOOOOOOOOOOOOOOOOOOOO",
"OOOOOOOOOOOOOOOOOOOOOOOOOOOOOOOOOOOOOOOOOOOOOOOOOOOOOOOOOOOOOOOO",
"OOOOOOOOOOOOOOOOOOOOOOOOOOOOOOOOOOOOOOOOOOOOOOOOOOOOOOOOOOOOOOOO",
"OOOOOOOOOOOOOOOOOO       OOOOOOOOOOOOOO      OOOOOOOOOOOOOOOOOOO",
"OOOOOOOOOOOOOOOOOO       OOOOOOOOOOOOOO      OOOOOOOOOOOOOOOOOOO",
"OOOOOOOOOOOOOOOOOO       OOOOOOOOOOOOOO      OOOOOOOOOOOOOOOOOOO",
"OOOOOOOOOOOOOOOOO oooXXXX OOOOOOOOOOO  XXXXoo  OOOOOOOOOOOOOOOOO",
"OOOOOOOOOOOOOOOOO oooXXXX OOOOOOOOOOO  XXXXoo  OOOOOOOOOOOOOOOOO",
"OOOOOOOOOOOOOOO  oXXX.   OOOOOOOOOOOOOO  ..XXoo   OOOOOOOOOOOOOO",
"OOOOOOOOOOOOOOO  oXXX.   OOOOOOOOOOOOOO  ..XXoo   OOOOOOOOOOOOOO",
"OOOOOOOOOOOOOOO  X... OOOO           OOOO  ..XX   OOOOOOOOOOOOOO",
"OOOOOOOOOOOOOOO  X... OOOO           OOOO  ..XX   OOOOOOOOOOOOOO",
"OOOOOOOOOOOOOOO  X...     ooooooooooo      ..XX   OOOOOOOOOOOOOO",
"OOOOOOOOOOOOOOO  X...     ooooooooooo      ..XX   OOOOOOOOOOOOOO",
"OOOOOOOOOOOOOOO  .... ooooXXXXXXXXXXXoooo  ....   OOOOOOOOOOOOOO",
"OOOOOOOOOOOOOOO  .... ooooXXXXXXXXXXXoooo  ....   OOOOOOOOOOOOOO",
"OOOOOOOOOOOOOOO  X.......XXXXXXXXXXXXXX......XX   OOOOOOOOOOOOOO",
"OOOOOOOOOOOOOOO  X.......XXXXXXXXXXXXXX......XX   OOOOOOOOOOOOOO",
"OOOOOOOOOOOOOOO  X.......XXXXXXXXXXXXXX......XX   OOOOOOOOOOOOOO",
"OOOOOOOOOOOOOOOOO ....XXXXXXXXXXXXXXXXXXX....  OOOOOOOOOOOOOOOOO",
"OOOOOOOOOOOOOOOOO ....XXXXXXXXXXXXXXXXXXX....  OOOOOOOOOOOOOOOOO",
"OOOOOOOOOOOOOOOOOO   XXXX.   oooXX   ..XXXX  OOOOOOOOOOOOOOOOOOO",
"OOOOOOOOOOOOOOOOOO   XXXX.   oooXX   ..XXXX  OOOOOOOOOOOOOOOOOOO",
"OOOOOOOOOOOOOOOOOO   XXXX.   oooXX   ..XXXX  OOOOOOOOOOOOOOOOOOO",
"OOOOOOOOOOOOOOOOOO   X...    oooXX     ..XX  OOOOOOOOOOOOOOOOOOO",
"OOOOOOOOOOOOOOOOOO   X...    oooXX     ..XX  OOOOOOOOOOOOOOOOOOO",
"OOOOOOOOOOOOOOOOOO   X...    oooXX     ..XX  OOOOOOOOOOOOOOOOOOO",
"OOOOOOOOOOOOOOOOOO   oXXX....oooXX.....ooXX  OOOOOOOOOOOOOOOOOOO",
"OOOOOOOOOOOOOOOOOO   oXXXX...     ...ooXXXX  OOOOOOOOOOOOOOOOOOO",
"OOOOOOOOOOOOOOOOOO   oXXXX...     ...ooXXXX  OOOOOOOOOOOOOOOOOOO",
"OOOOOOOOOOOOOOOOOO   oXXXX...     ...ooXXXX  OOOOOOOOOOOOOOOOOOO",
"OOOOOOOOOOOOOOOOOO   .oooX...     ...ooXX..  OOOOOOOOOOOOOOOOOOO",
"OOOOOOOOOOOOOOOOOOOOO ...X...     ...oo..  OOOOOOOOOOOOOOOOOOOOO",
"OOOOOOOOOOOOOOOOOOOOO ...X...     ...oo..  OOOOOOOOOOOOOOOOOOOOO",
"OOOOOOOOOOOOOOOOOOOOO ...X...     ...oo..  OOOOOOOOOOOOOOOOOOOOO",
"OOOOOOOOOOOOOOOOOOOOOO   ....     .....  OOOOOOOOOOOOOOOOOOOOOOO",
"OOOOOOOOOOOOOOOOOOOOOOOOO    OOOOO     OOOOOOOOOOOOOOOOOOOOOOOOO",
"OOOOOOOOOOOOOOOOOOOOOOOOO    OOOOO     OOOOOOOOOOOOOOOOOOOOOOOOO",
"OOOOOOOOOOOOOOOOOOOOOOOOOOOOOOOOOOOOOOOOOOOOOOOOOOOOOOOOOOOOOOOO",
"OOOOOOOOOOOOOOOOOOOOOOOOOOOOOOOOOOOOOOOOOOOOOOOOOOOOOOOOOOOOOOOO",
"OOOOOOOOOOOOOOOOOOOOOOOOOOOOOOOOOOOOOOOOOOOOOOOOOOOOOOOOOOOOOOOO",
"OOOOOOOOOOOOOOOOOOOOOOOOOOOOOOOOOOOOOOOOOOOOOOOOOOOOOOOOOOOOOOOO",
"OOOOOOOOOOOOOOOOOOOOOOOOOOOOOOOOOOOOOOOOOOOOOOOOOOOOOOOOOOOOOOOO",
"OOOOOOOOOOOOOOOOOOOOOOOOOOOOOOOOOOOOOOOOOOOOOOOOOOOOOOOOOOOOOOOO",
"OOOOOOOOOOOOOOOOOOOOOOOOOOOOOOOOOOOOOOOOOOOOOOOOOOOOOOOOOOOOOOOO",
"OOOOOOOOOOOOOOOOOOOOOOOOOOOOOOOOOOOOOOOOOOOOOOOOOOOOOOOOOOOOOOOO",
"OOOOOOOOOOOOOOOOOOOOOOOOOOOOOOOOOOOOOOOOOOOOOOOOOOOOOOOOOOOOOOOO",
"OOOOOOOOOOOOOOOOOOOOOOOOOOOOOOOOOOOOOOOOOOOOOOOOOOOOOOOOOOOOOOOO",
"OOOOOOOOOOOOOOOOOOOOOOOOOOOOOOOOOOOOOOOOOOOOOOOOOOOOOOOOOOOOOOOO",
"OOOOOOOOOOOOOOOOOOOOOOOOOOOOOOOOOOOOOOOOOOOOOOOOOOOOOOOOOOOOOOOO",
"OOOOOOOOOOOOOOOOOOOOOOOOOOOOOOOOOOOOOOOOOOOOOOOOOOOOOOOOOOOOOOOO",
"OOOOOOOOOOOOOOOOOOOOOOOOOOOOOOOOOOOOOOOOOOOOOOOOOOOOOOOOOOOOOOOO"
};
