/* XPM */
static char *result[] = {
/* columns rows colors chars-per-pixel */
"64 64 224 2 ",
"   c #492513",
".  c #4F2913",
"X  c #4F2A14",
"o  c #4E2A16",
"O  c #4E2C18",
"+  c #4E2C19",
"@  c #502A13",
"#  c #502A14",
"$  c #512A14",
"%  c #512B14",
"&  c #502B15",
"*  c #502C16",
"=  c #522D16",
"-  c #532E17",
";  c #542D16",
":  c #502D19",
">  c #502E19",
",  c #512E19",
"<  c #532E18",
"1  c #532E19",
"2  c #512E1A",
"3  c #512F1A",
"4  c #522F1A",
"5  c #522F1B",
"6  c #542F19",
"7  c #4F311E",
"8  c #53301A",
"9  c #52301B",
"0  c #55311B",
"q  c #51311D",
"w  c #52301C",
"e  c #53321D",
"r  c #51311F",
"t  c #52321E",
"y  c #53321E",
"u  c #55311C",
"i  c #55321C",
"p  c #55321D",
"a  c #56321C",
"s  c #57321C",
"d  c #56331E",
"f  c #56341D",
"g  c #57341E",
"h  c #56341F",
"j  c #57341F",
"k  c #57351F",
"l  c #58351E",
"z  c #58341F",
"x  c #59351F",
"c  c #58361F",
"v  c #59361F",
"b  c #4F3625",
"n  c #513220",
"m  c #523422",
"M  c #533422",
"N  c #533523",
"B  c #543420",
"V  c #543522",
"C  c #553522",
"Z  c #543523",
"A  c #553622",
"S  c #553623",
"D  c #543624",
"F  c #583520",
"G  c #583521",
"H  c #583620",
"J  c #593621",
"K  c #583722",
"L  c #553825",
"P  c #553826",
"I  c #563826",
"U  c #573A27",
"Y  c #593822",
"T  c #5A3924",
"R  c #5B3B25",
"E  c #5A3A26",
"W  c #5B3B26",
"Q  c #5B3C27",
"!  c #53392B",
"~  c #563A28",
"^  c #563A29",
"/  c #563B29",
"(  c #573B29",
")  c #543A2A",
"_  c #573C2C",
"`  c #573E2E",
"'  c #583C29",
"]  c #583C2A",
"[  c #593D2A",
"{  c #5C3D2A",
"}  c #5D3E2A",
"|  c #5D3E2B",
" . c #5E3F2B",
".. c #563F31",
"X. c #615F16",
"o. c #656C17",
"O. c #686F16",
"+. c #72751B",
"@. c #564032",
"#. c #574234",
"$. c #574335",
"%. c #584031",
"&. c #5B4231",
"*. c #584132",
"=. c #594234",
"-. c #584335",
";. c #594537",
":. c #594538",
">. c #5A4739",
",. c #5A473A",
"<. c #5B483B",
"1. c #5B493C",
"2. c #5C493D",
"3. c #5C4B3E",
"4. c #787B21",
"5. c #5C4B40",
"6. c #5D4D41",
"7. c #5D4D42",
"8. c #5D4F43",
"9. c #5E4F44",
"0. c #5E4F45",
"q. c #5D5044",
"w. c #5E5146",
"e. c #5F5146",
"r. c #5C5247",
"t. c #5D5348",
"y. c #5F5349",
"u. c #665444",
"i. c #655B4F",
"p. c #685B4E",
"a. c #685C4F",
"s. c #655F57",
"d. c #685D50",
"f. c #6A5F52",
"g. c #6A5F53",
"h. c #6B5F53",
"j. c #665F58",
"k. c #666057",
"l. c #6C6352",
"z. c #6D6353",
"x. c #6B6054",
"c. c #6C6155",
"v. c #6D6257",
"b. c #6E6357",
"n. c #6F6357",
"m. c #6D6457",
"M. c #676159",
"N. c #676259",
"B. c #68625A",
"V. c #68635A",
"C. c #68635B",
"Z. c #69635B",
"A. c #69645B",
"S. c #6D6458",
"D. c #6E6458",
"F. c #6F6458",
"G. c #6E6459",
"H. c #6F6459",
"J. c #6E6559",
"K. c #6F6559",
"L. c #6E6659",
"P. c #6F6659",
"I. c #6F665A",
"U. c #69645C",
"Y. c #6A645C",
"T. c #6A655C",
"R. c #6A645D",
"E. c #6A655D",
"W. c #6B655D",
"Q. c #6A665C",
"!. c #6B665D",
"~. c #6B675D",
"^. c #6B675E",
"/. c #6C665E",
"(. c #6C675E",
"). c #6C675F",
"_. c #6C685E",
"`. c #6D685F",
"'. c #6D695F",
"]. c #70675B",
"[. c #71675B",
"{. c #71675C",
"}. c #71685D",
"|. c #72685E",
" X c #716B5F",
".X c #706B62",
"XX c #766D61",
"oX c #776E61",
"OX c #776D63",
"+X c #786F62",
"@X c #786F63",
"#X c #786F64",
"$X c #786F66",
"%X c #786F67",
"&X c #797064",
"*X c #797065",
"=X c #7A7165",
"-X c #7A7066",
";X c #7A7166",
":X c #7A7267",
">X c #7B7267",
",X c #757068",
"<X c #767469",
"1X c #787368",
"2X c #7A7269",
"3X c #7D746B",
"4X c #7D746C",
"5X c #7C776D",
"6X c #7F766C",
"7X c #7D786E",
"8X c #7C7A70",
"9X c #7D7B70",
"0X c #7D7B71",
"qX c #7F8124",
"wX c #7F8226",
"eX c #848279",
"rX c #86847B",
"tX c #8D8B83",
"yX c #8E8C83",
"uX c #908D85",
"iX c #918F88",
"pX c #929088",
"aX c #94928B",
"sX c #99978F",
/* pixels */
"+.+.+.+.+.+.+.+.+.+.+.+.+.+.+.+.+.+.+.+.+.+.+.+.+.+.+.+.+.+.+.+.+.+.+.+.+.+.+.+.+.+.+.+.+.+.+.+.+.+.+.+.+.+.+.+.+.+.+.+.+.+.+.+.",
"+.+.+.+.+.# 1 6 6 a a J J | |  . . . . . . .+. . . . .| | | | | } } } } } } { { { +.@ < p d h h h h h h k k k k k g = +.+.+.+.+.",
"+.+.+.+.# 6X:X:X=X#X@X@X+XoXXXXXoXoX@X&X*X>XU %X%X%X%X%X%X%X$X$X$X$X$X$X$X$X4X4X3XP [.[.[.[.OXOXOXOXOXOXOXOXOXOXOXOX;XP +.+.+.+.",
"+.+.+.+.# }.{.m.G.m.m.m.m.m.D.z.z.z.l.l.l.l.] m.m.m.S.S.S.I.I.I.J.L.P.P.P.I.P.P.2X/ p.p.p.p.a.d.f.f.x.x.c.f.b.b.n.n.-X/ +.+.+.+.",
"+.+.+.+.# }.{.m.m.m.m.m.m.m.D.z.z.z.l.l.l.l.' m.m.m.S.S.S.I.I.I.I.P.P.K.P.P.P.P.$X^ p.p.p.p.a.f.f.f.x.x.x.x.b.b.F.n.-X^ +.+.+.+.",
"+.+.P / # |.}.{.m.m.}.}.m.m.D.m.z.z.z.l.l.l.t m.m.m.S.S.S.S.I.I.I.I.P.P.P.P.I.I.$Xq p.p.p.p.f.f.f.g.x.x.x.x.x.b.b.b.-Xq i.+.+.+.",
"+.= ;X-X# |.}.}.}.}.}.}.}.m.m.D.D.z.z.z.l.l.> m.m.m.S.S.S.S.S.S.I.I.P.P.P.K.P.L.$X+ p.p.p.p.f.g.g.h.x.x.x.x.x.x.v.7XyXX } +.+.+.",
"+.g OXn.$ |.}.{.}.}.}.}.}.m.m.D.D.D.z.z.l.l.: m.m.m.m.m.H.S.S.S.I.I.I.P.P.].L.I.$XO p.p.p.p.g.g.g.g.g.g.g.1X1X1X5X5XuX. { +.+.+.",
"+.k OXn.X.% % - i f j z F F H H H H x v c l e.s ; H Y Y Y Y Y Y T K E R R Q Q W g  X. < < < 0 u G G { { { { { { { { } i.{ +.+.+.",
"+.k OXb.b.b.x.1X{ iXiXiXiXiXpXaXsXsXu.aXsXsXsXaXaXaXaXaXaXaXaXaXiXiXiXiXiXiXiXiXiXiXpXaXsXsXu.aXsXsXsXaXaXk OXb.b.b.x.1X{ +.+.+.",
"+.k OXb.b.x.x.1X{ `.`.`.`.'.'.'.'.`.&.`.`.`._.`.`.`.`.(._._._._.'.'.'.`.`.`.`.`.`.'.'.'.'.`.&.`.`.`._.`.`.k OXb.b.x.x.1X{ +.+.+.",
"+.k OXf.x.x.x.1X{ `.`._._._._._._.(.&.`._._.(.(._._.(.(.(.(.(.(.`.`.`.`.`.`.`._._._._._._.(.&.`._._.(.(._.k OXf.x.x.x.1X{ +.+.+.",
"+.k OXc.x.x.x.g.{ _._._._._.(.(.(.(.&.(.(.(.(.(.~.(.(.(.(.(./.!.`._._._._._._._._._.(.(.(.(.&.(.(.(.(.(.~.k OXc.x.x.x.g.{ +.+.+.",
"+.h OXx.x.x.x.g.{ (.(.(.(.(.~.~.~.~.&.!.!.!.!.!.!.!.!.!.!.!.!.!.(.(.(.(.(.(.(.(.(.(.~.~.~.~.&.!.!.!.!.!.!.h OXx.x.x.x.g.{ +.+.+.",
"+.h OXx.x.x.x.g.{ !.!.!.!.!.!.!.!.!.&.!.!.!.!.!.W.T.T.T.T.Q.Q.Q.~.!.!.!.!.!.!.!.!.!.!.!.!.!.&.!.!.!.!.!.W.h OXx.x.x.x.g.{ +.+.+.",
"+.h OXf.f.g.h.g.G T.T.T.T.T.T.W.W.W.[ W.W.T.Y.Y.Y.Y.Y.Y.Y.T.T.T.T.T.T.T.T.T.T.T.T.T.T.W.W.W.[ W.W.T.Y.Y.Y.h OXf.f.g.h.g.G +.+.+.",
"+.h OXf.f.f.g.g.G T.T.T.T.T.T.T.T.T.y A.A.A.A.A.A.A.A.A.A.A.A.A.T.T.T.T.T.T.T.T.T.T.T.T.T.T.y A.A.A.A.A.A.h OXf.f.f.g.g.G +.+.+.",
"4.h OXd.f.f.g.g.u A.A.A.A.A.A.A.A.A.y Z.Z.Z.Z.Z.A.A.A.A.A.A.A.A.A.A.Y.A.A.A.A.A.A.A.A.A.A.A.y Z.Z.Z.Z.Z.A.h OXd.f.f.g.g.u +.+.+.",
"4.h OXa.a.f.f.g.0 N.B.N.B.B.B.V.V.B.y B.B.B.B.B.B.B.B.V.V.B.V.V.N.N.N.N.N.N.B.N.B.B.B.V.V.B.y B.B.B.B.B.B.h OXa.a.f.f.g.0 +.+.+.",
"+.d [.p.p.p.p.p.< M.M.M.M.M.M.M.M.M.y M.M.M.M.M.M.M.M.M.M.M.M.M.M.M.M.M.M.M.M.M.M.M.M.M.M.M.y M.M.M.M.M.M.d [.p.p.p.p.p.< +.+.+.",
"+.p [.p.p.p.p.p.< M.M.M.M.M.M.M.M.M.y M.M.M.M.M.M.M.M.M.M.M.M.M.M.M.M.M.M.M.M.M.M.M.M.M.M.M.y M.M.M.M.M.M.p [.p.p.p.p.p.< +.+.+.",
"+.< [.p.p.p.p.p.< . . . . . . . & X t.. . . . . . . . . . . .       . . . . . . . . . . . . t.. . . . . . < [.p.p.p.p.p.< +.+.+.",
"+.@ [.p.p.p.p.p.. r.r.r.r.r.r.r.r.t.r.t.t.t.t.. +.+.+.+.+.+.+.+.+.+.+.+.+.+.+.+.+.  t.t.t.t.t.t.t.t.r.r.7 @ [.p.p.p.p.p.. +.+.+.",
"+.+.P / ^ q + O  Xr.r.r.r.r.r.r.r.t.r.t.t..   +.+.+.+.+.+.+.+.+.+.+.+.+.+.+.+.+.+.+.    t.t.t.t.t.t.r.r.7 r.P / ^ q + O  X+.+.+.",
"+.{ 3X2X$X$X$X$Xg r.r.r.r.r.r.r.r.t.r.t.. +.+.+.+.+.+.+.+.+.+.+.+.+.+.+.+.+.+.+.+.+.+.+.  t.t.t.t.t.r.r.b { 3X2X$X$X$X$Xg +.+.+.",
"+.{ 4XP.P.I.L.I.W r.r.r.r.r.r.r.r.t.. +.+.+.+.+.+.+.+.+.+.+.+.+.+.+.+.+.+.+.+.+.+.+.+.+.+.. t.t.t.t.r.r.b { 4XP.P.I.L.I.W +.+.+.",
"+.{ 4XP.P.I.P.L.Q r.r.r.r.r.r.r.r.t.  +.+.+.+.+.+.+.+.+.+.+.+.+.+.+.+.+.+.+.+.+.+.+.+.+.+.. t.t.t.t.r.r.b { 4XP.P.I.P.L.Q +.+.+.",
"+.} $XI.P.P.K.].Q M.M.M.M.M.M.M.M.. +.+.+.+.+.+.+.+.+.+.+.+.+.+.+.+.+.+.+.+.+.+.+.+.+.+.+.+.. T.s.s.M.M.*.} $XI.P.P.K.].Q +.+.+.",
"+.} $XP.P.P.P.P.R M.M.M.M.M.M.M.M.. +.+.+.+.+.+.+.+.+.+.+.+.+.+.+.+.+.+.+.+.+.+.+.+.+.+.+.+.  A.s.s.M.M.D } $XP.P.P.P.P.R +.+.+.",
"+.} $XP.K.P.P.P.R 6.6.w.w.w.y.y.<.+.+.+.+.+.+.+.+.wXwX+.+.+.+.+.+.+.+.+.+.+.+.+.+.+.+.+.+.+.+.n ) *.*.` _ } $XP.K.P.P.P.R +.+.+.",
"+.} $XP.P.P.P.I.E `.).).).).).).`.S +.+.+.+.+.+.+.+.wX4.4.+.+.+.wXwX+.+.+.+.+.+.+.+.+.+.+.+.N `.`.`.).).).} $XP.P.P.P.I.E +.+.+.",
"+.} $XL.P.I.I.I.K M.M.M.M.M.M.M.M.^ +.+.+.+.+.+.+.+.o.4.4.+.+.4.wX+.+.+.+.+.+.+.+.+.+.+.+.+.n W.M.M.M.M.M.} $XL.P.I.I.I.K +.+.+.",
"+.} $XJ.I.I.I.I.T M.M.M.M.M.M.M.M.( +.+.+.+.+.+.+.+.+.o.o.+.4.4.4.+.+.+.+.+.+.+.+.+.+.+.+.+.r !.M.M.M.M.M.} $XJ.I.I.I.I.T +.+.+.",
"+.| $XI.I.I.S.S.Y M.M.M.M.M.M.M.M.I +.+.+.+.+.+.+.+.+.+.+.+.4.4.o.+.+.+.+.+.+.+.+.+.+.+.+.+.r !.M.M.M.M.M.| $XI.I.I.S.S.Y +.+.+.",
"+.| $XI.I.I.S.S.Y M.M.M.M.M.M.M.M.L +.+.+.+.+.+.+.+.+.+.+.+.o.o.+.+.+.+.+.+.+.+.+.+.+.+.+.+.m !.M.M.M.M.M.| $XI.I.I.S.S.Y +.+.+.",
"+.| %XI.I.S.S.S.Y M.M.M.M.M.M.M.M.( +.+.+.+.+.+.+.+.+.+.+.+.+.+.+.+.+.+.+.+.+.+.+.+.+.+.+.+.( !.M.M.M.M.M.| %XI.I.S.S.S.Y +.+.+.",
"+.| %XS.S.S.S.H.Y M.M.M.M.M.M.M.M.! +.+.+.+.+.+.+.+.+.+.+.+.+.+.+.+.+.+.+.+.+.+.+.+.+.+.+.+.( M.M.M.M.M.M.| %XS.S.S.S.H.Y +.+.+.",
"+.| %XS.S.S.S.m.Y D %.=.1.y.y.y.,.+.+.+.+.+.+.+.+.+.+.+.+.+.+.+.+.+.+.+.+.+.+.+.+.+.+.+.+.+.+...@.:.>.<.7.| %XS.S.S.S.m.Y +.+.+.",
"+. .%XS.S.S.S.m.Y U.U.U.U.U.U.U.^.o +.+.+.+.+.+.+.+.+.+.+.+.+.+.+.+.+.+.+.+.+.+.+.+.+.+.+.+.M ).).).).).5. .%XS.S.S.S.m.Y +.+.+.",
"+. .%Xm.m.m.m.m.H j.j.j.j.j.j.j.j., +.+.+.+.+.+.+.+.+.+.+.+.+.+.+.4.wX+.+.+.+.+.+.+.+.+.+.+.N E.s.s.j.j.2. .%Xm.m.m.m.m.H +.+.+.",
"+. .%Xm.m.m.m.m.; j.j.j.j.j.j.j.j.3 +.+.+.+.+.+.+.+.+.+.+.+.+.+.+.+.wXwX+.+.+.+.+.+.+.+.+.+.S E.s.s.j.j.0. .%Xm.m.m.m.m.; +.+.+.",
"+. .%Xm.m.m.m.m.s j.j.j.j.j.j.j.j.5 +.+.+.+.+.+.+.+.+.+.+.+.+.+.+.+.4.4.4.+.+.+.+.+.+.+.+.+.N E.s.s.j.j.0. .%Xm.m.m.m.m.s +.+.+.",
"+.+.U ] ' t > : e.j.j.j.j.j.j.j.j.9 +.+.+.+.+.+.+.+.+.+.+.+.+.+.+.+.o.4.4.o.4.4.wXwX+.+.+.+.S E.s.s.j.j.9.j.U ] ' t > : e.+.+.+.",
"+. .>Xl.l.l.l.l.l j.j.j.j.j.j.j.j.w +.+.+.+.+.+.+.+.+.+.+.+.+.+.+.+.+.o.o.4.4.4.+.+.+.+.+.+.S E.s.s.j.j.Z  .>Xl.l.l.l.l.l +.+.+.",
"+. .*Xl.l.l.l.l.c j.j.j.j.j.j.j.j.. +.+.+.+.+.+.+.+.+.+.+.+.+.+.+.+.+.+.+.4.4.o.+.+.+.+.+.+.B C.s.s.j.j.Z  .*Xl.l.l.l.l.c +.+.+.",
"+. .&Xl.l.l.z.z.v 1.3.q.q.q.q.8.;.+.+.+.+.+.+.+.+.+.+.+.+.+.+.+.+.+.+.+.+.4.o.+.+.+.+.+.+.+.+.-.$.#.*.*.*. .&Xl.l.l.z.z.v +.+.+.",
"+. .@Xl.l.z.z.z.x j.j.j.j.j.j.j.j.~ +.+.+.+.+.+.+.+.+.+.+.+.+.+.+.+.+.+.+.+.+.+.+.+.+.+.+.+.V M.j.j.j.j.j. .@Xl.l.z.z.z.x +.+.+.",
"+. .oXz.z.z.z.D.H j.j.j.j.j.j.j.j.P +.+.+.+.+.+.+.+.+.+.+.+.+.+.+.+.+.+.+.+.+.+.+.+.+.+.+.+.V R.j.j.j.j.j. .oXz.z.z.z.D.H +.+.+.",
"+. .oXz.z.z.D.D.H j.j.j.j.j.j.j.j.P +.+.+.+.+.+.+.+.+.+.+.+.+.+.+.+.+.+.+.+.+.+.+.+.+.+.+.+.C R.j.j.j.j.j. .oXz.z.z.D.D.H +.+.+.",
"+. .XXz.z.m.D.D.H j.j.j.j.j.j.j.j.P +.+.+.+.+.+.+.+.+.+.+.+.+.+.+.+.+.+.+.+.+.+.+.+.+.+.+.+.C E.j.j.j.j.j. .XXz.z.m.D.D.H +.+.+.",
"+.| XXD.D.D.m.m.H j.j.j.j.j.j.j.j.w +.+.+.+.+.+.+.+.+.+.+.+.+.+.+.+.+.+.+.+.+.+.+.+.+.+.+.+.A E.j.j.j.j.j.| XXD.D.D.m.m.H +.+.+.",
"+.| oXm.m.m.m.m.F j.j.j.j.j.j.j.j.2 +.+.+.+.+.+.+.+.+.+.+.+.+.+.+.+.+.+.+.+.+.+.+.+.+.+.+.4.A E.j.j.j.j.j.| oXm.m.m.m.m.F +.+.+.",
"+.J +Xm.m.m.}.}.F j.j.j.j.j.j.j.j.* +.+.+.+.+.+.+.+.+.+.+.+.+.+.+.+.+.+.+.+.+.+.+.+.+.+.+.4.A R.j.j.j.j.j.J +Xm.m.m.}.}.F +.+.+.",
"+.J @Xm.m.}.}.}.z <X<X<X<X<X<X<X<X0X4 +.+.+.+.+.+.+.+.+.+.+.+.+.+.+.+.+.+.+.+.+.+.+.+.+.+.y eX<X<X<X<X<X<XJ @Xm.m.}.}.}.z +.+.+.",
"+.a @Xm.m.}.}.}.j <X<X<X<X<X<X<X<X9X8 +.+.+.+.+.+.+.+.+.+.+.+.+.+.+.+.+.+.+.+.+.+.+.+.+.+.. eX<X<X<X<X<X<Xa @Xm.m.}.}.}.j +.+.+.",
"+.a #Xm.m.m.}.}.f <X<X<X<X<X<X<X<X8Xe +.+.+.+.+.+.+.+.+.+.+.+.+.+.+.+.+.+.+.+.+.+.+.+.+.+.. eX<X<X<X<X<X<Xa #Xm.m.m.}.}.f +.+.+.",
"+.6 =XG.m.m.}.}.i <X<X<X<X<X<X<X<X8X. +.+.+.+.+.+.+.+.+.+.+.+.+.+.+.+.+.+.+.+.+.+.+.+.+.+.. eX<X<X<X<X<X<X6 =XG.m.m.}.}.i +.+.+.",
"+.6 :Xm.m.{.}.{.- rXrXrXrXrXrXrXrXrX. +.+.+.+.+.+.+.wXwX+.+.+.+.+.wX+.+.+.+.+.+.+.+.+.+.+.. tXtXrXrXrXrXrX6 :Xm.m.{.}.{.- +.+.+.",
"+.1 :X{.{.}.}.}.% k.k.k.k.k.k.k.k..X. +.+.+.+.+.+.+.+.wX4.4.+.4.wX+.+.+.+.+.+.+.+.+.+.+.+.. ,Xk.k.k.k.k.k.1 :X{.{.}.}.}.% +.+.+.",
"+.# 6X}.}.|.|.|.% k.k.k.k.k.k.k.k..X. +.+.+.+.+.4.wXwXo.4.o.4.4.o.+.+.+.+.+.+.+.+.+.+.+.+.. ,Xk.k.k.k.k.k.# 6X}.}.|.|.|.% +.+.+.",
"+.+.# # # # # $ X.. . . . . . . . . +.+.+.+.+.+.+.wX4.4.o.o.4.4.o.+.+.+.+.+.+.+.+.+.+.+.+.+.. . . . . . . . # # # # # $ X.+.+.+.",
"+.+.+.+.+.+.+.+.+.+.+.+.+.+.+.+.+.+.+.+.+.+.+.+.+.o.4.4.+.+.4.o.+.+.+.+.+.+.+.+.+.+.+.+.+.+.+.+.+.+.+.+.+.+.+.+.+.4.qXqX+.+.+.+.",
"+.+.+.+.+.+.+.+.+.+.+.+.+.+.+.+.+.+.+.+.+.+.+.+.+.+.o.4.+.+.+.+.+.+.+.+.+.+.+.+.+.+.+.+.+.+.+.+.+.+.+.+.+.+.+.+.+.+.qX4.4.+.+.+.",
"+.+.+.+.+.+.+.+.+.+.+.+.+.+.+.+.+.+.+.+.+.+.+.+.+.+.+.+.+.+.+.+.+.+.+.+.+.+.+.+.+.+.+.+.+.+.+.+.+.+.+.+.+.+.+.+.+.+.O.4.4.+.+.+."
};
