/* XPM */
static char *result[] = {
/* columns rows colors chars-per-pixel */
"64 64 41 1 ",
"  c #656C17",
". c #686F16",
"X c #72751B",
"o c #787B21",
"O c #5F5B46",
"+ c #605C48",
"@ c #64604B",
"# c #676455",
"$ c #6C6852",
"% c #7C7B6E",
"& c #7E7D71",
"* c #807F72",
"= c #807F73",
"- c #7F8124",
"; c #7F8226",
": c #828175",
"> c #828077",
", c #838178",
"< c #838278",
"1 c #838279",
"2 c #848279",
"3 c #84827A",
"4 c #878679",
"5 c #87857C",
"6 c #87867D",
"7 c #88867D",
"8 c #88867E",
"9 c #88877E",
"0 c #89877E",
"q c #89877F",
"w c #8A8A7D",
"e c #898780",
"r c #8C8A80",
"t c #8C8A81",
"y c #8D8B82",
"u c #8D8B83",
"i c #8D8C82",
"p c #8D8C83",
"a c #8E8C83",
"s c #939189",
"d c None",
/* pixels */
"XXXXXXXXXXXXXXXXXXXXXXXXXXXXXXXXXXXXXXXXXXXXXXXXXXXX..XXXXXXXXXX",
"XX************XXXX************XXXX444444444444XXXX************XX",
"X7************7XX7************7XXr444444444444wXX6************7X",
"X7************7XX7************7XXy444444444444tXX7************7X",
"X7************7XX7************7XXp444444444444yXX7************7X",
"X7************7XX7**********7##XXp444444444444iXX7************7X",
"X7************7XX7***********7XXXp444444444444pXX7************7X",
"X7************7XX7***********7XXXp444444444444aXX7************7X",
"X7************7XX7************7XXp444444444444aXX7************7X",
"X7************7XX7************7XXp444444444444aXX7************7X",
"X7************7XX7************7XX$p44444444444aXX7************uX",
"X7************7XX7************7XXX$p4444444444aXX7***********u@X",
"X7************7XX7************7XXXXp4444444444aXX6**********u@XX",
"X7**********;o@XX7************7X--Xp4444444444aXX5*********u@XXX",
"X@uuuuu;ouuo; XXX@uuuuuuuuuuuuuXX-oossssssssss@XX@uuuuuuuuu@XXXX",
"XX@@@@@ oo@ooXXXXX@@@@@@@@@@@@@XX.o.$$$$$$$$$$XXXX@@@@@@@@@XXXXX",
"XXXXXXXX ooo XXXXXXXXXXXXXXXXXXXXX..XXXXXXXXXXXXXXXXXXXXXXXXXXXX",
"XX****** oo XXXXXXXXX%%%%%%%%%XXXX**********XXXXXX******qXX***XX",
"X8******* oXXXXXXXXX%%%%%%%%%%1XX6************XXX9******qX****8X",
"X8***********XXXXXX%%%%%%%%%%%1XX6************7XX9*****q@*****8X",
"X8************7XX2%%%%%%%%%%%%1XX6************7XX9oo*qq@X*****8X",
"X8************7XX2%%%%%%%%%%%%1XX6************7XX--qq@@XX*****8X",
"X8************2XXo%%%%%%%%%%%%1XX6************7Xoo.@@XXX******8X",
"X7************2X--%%%%%%%%%%%%1XX6************7Xoo.XXXX*******7X",
"X7************2o-.%%%%%%%%%%%%1XX6************7Xo.XXX*********7X",
"X7************2oo2%%%%%%%%%%%%1XX6************7XXXX***********7X",
"X7************7..2%%%%%%%%%%%%1XX6************7XX9************7X",
"X7************7XX2%%%%%%%%%%%%1XX6************7XX9************7X",
"X6************7XX2%%%%%%%%%%%quXX6***********uuXX9************6X",
"X5************7XX7%%%%%%%%%%q@@XX6********uuo--XX9:***********5X",
"X@uuuuuuuuuuuu@XX@uqqqqqqqqq@XXXX@uuuuuuuu@@@-ooX@uuuuuuuuuuuu@X",
"XX@@@@@@@@@@@@XXXX@@+++++++@XXXXXX@@@@@@@@XXX.ooXX@@@@@@@@@@@@XX",
"XXXXXXXXXXXXXXXXXXXXXXXXXXXXXXXXXXXXXXXXXXXXXX.oXXXXXXXXXXXXXXXX",
"XX************XXXX444444444444XXXX************XXXXXXX%%%%%%%%%XX",
"X7************6XXw444444444444rXX6************7XXXXXoo%%%%%%%%=X",
"X7************7XXt444444444444yXX7************7XXXX;o%%%%%%%%%>X",
"X7************7XXy444444444444yXX7************7XXXoo1%%%%%%%%%,X",
"X7************7XXi444444444444yXX7************;;oXoo1%%%%%%%%%<X",
"X7************7XXp444444444444yXX@0o;00*******7;oo o%%%%%%%%%%1X",
"X7************7XXa444444444444yXXX@@;o@0******7 oo1%%%%%%%%%%%2X",
"X7************7XXa444444444444yXXXXXooX@0*****7X 1%%%%%%%%%%%%2X",
"X7************7XXa444444444444pXXXXX  XX@0****7XX1%%%%%%%%%%%%2X",
"X7************7XXa444444444444yXXXXXXXXXX@7***7XX,%%%%%%%%%%%%2X",
"X@7***********7XXa444444444444yXX****XXXXX7***6XX,%%%%%%%%%%%%2X",
"XX@7**********6XXa444444444444yXX*****XXXX7***6XX,%%%%%%%%%%%%2X",
"XXX@7*********5XXa444444;4444s$XXu*****XXXuu**5XXOq%%%%%%%%%%%qX",
"XXXX@uuuuuuuuu@XX$sssss; ssss$XXX@uuuuuXXX@@uuuXXXO7qqqqqqqqq7XX",
"XXXXX@@@@@@@@@@XXX$$$$oo $$$$XXXXX@@@@@XXXXX@@@XXXXOOOO++++@@@XX",
"XXXXXXXXXXXXXXXXXXXXXXo XXXXXXXXXXXXXXXXXXXXXXXXXXXXXXXXXXXXXXXX",
"XX%%%XX3%%%%%%XXXXXX**********XXXXXXXX9*******XXXX**********XXXX",
"X2%%%%X3%%%%%%2XXX************7XXXXXX9********8XX6************XX",
"X2%%%%%+q%%%%%2XX7************7XXXXX9*********8XX6************7X",
"X2%%%%%X+qq%%%2XX7************7XXX99**********8XX6************7X",
"X2%%%%%XX++qqqqXX7************7XX9************8XX6************7X",
"X2%%%%%%XXX++++XX7************7XX9************8XX6************7X",
"X2%%%%%%%XXXXXXXX7************7XX9************7XX6************7X",
"X2%%%%%%%%%XXXXXX7************7XX9************7XX6************7X",
"X2%%%%%%%%%%%XXXX7************7XX9************7XX6*********uuu@X",
"X2%%%%%%%%%%%%2XX7************7XX9************7XX6********u@@@XX",
"X2%%%%%%%%%%%%2XX7************7XX9************7XX6*******u@XXXXX",
"X2%%%%%%%%%%%%2XX@u***********7XX9************6XX6******u@XXXXXX",
"X2%%%%%%%%%%%&2XXX@uuu********7XX9************5XX6*****u@XXXXXXX",
"XXqqqqqqqqqqqqqXXXX@@@uuuuuuuuuXX@eqqqqqqqqqqq@XX@uuuuu@XXXXXXXX",
"dXXXXXXXXXXXXXXXXXXXXXXXXXXXXXXXXXXXXXXXXXXXXXXXXXXXX..XXXXXXXXX"
};
