/* XPM */
static char *result[] = {
/* columns rows colors chars-per-pixel */
"64 64 62 1 ",
"  c #4F2913",
". c #512C14",
"X c #532E18",
"o c #55321D",
"O c #58351F",
"+ c #563621",
"@ c #583621",
"# c #573924",
"$ c #5A3A25",
"% c #573B28",
"& c #5B3E2B",
"* c #636317",
"= c #6C6D19",
"- c #74771E",
"; c #5C402D",
": c #5B4331",
"> c #5E4936",
", c #5F4A3A",
"< c #614F3F",
"1 c #6C6A2E",
"2 c #747728",
"3 c #696532",
"4 c #6C6A30",
"5 c #747633",
"6 c #75753E",
"7 c #5D5144",
"8 c #5F574E",
"9 c #5F584E",
"0 c #625343",
"q c #61554A",
"w c #63594E",
"e c #685C4F",
"r c #635C53",
"t c #695F53",
"y c #655F58",
"u c #666057",
"i c #6B6255",
"p c #676159",
"a c #6B645B",
"s c #6E685C",
"d c #716458",
"f c #716A5D",
"g c #6E6860",
"h c #736D61",
"j c #796F63",
"k c #757267",
"l c #787267",
"z c #767468",
"x c #79756A",
"c c #7C7A6D",
"v c #7E7C71",
"b c #807D6F",
"n c #817E73",
"m c #7E803E",
"M c #838175",
"N c #85837A",
"B c #8A877E",
"V c #8B897E",
"C c #8C8A83",
"Z c #908D85",
"A c #94928B",
"S c #9B9991",
/* pixels */
"ACCCCCCCCCCCCCCBCCVAAA;cvbMbVVVVVBVVVVVBnCBnZ$SAASAAAAAAAAAAAAAA",
"AccvxvvvvvvvvvvvvvvvvC:hhhhhhjfllxxlxljcblbbZ;nnnnnnMMMnMMMMMNNN",
"AccccvcvvvvvvvvvvvvvvC:kkhhhkhllllxxxllbbbbbZ&nnnnNnMMMMMMMMNNNN",
"AcccccccvvvvvvvvvvvvvCXghhhhhllllxxlxxllxbxcCXnnMNnNMMMMMMMMNMNN",
"AcccccccccvvvvvvbcvvvC shhhhhklxblxxxxxxlccxC MMMMMMMMMMMMMMMNMV",
"AccvccnccvxvvvvvbbvvvC khhhhhllljllxllxllxccZ MMNnnMMMMMMMMNMNMM",
"AX+@+##@##@@+#%%;##;;og ..XXooXO@&&&&&&$%;;;;w  ..XoO@$$;$$$$$$$",
"AvnNnN#qqyyyyyryu999k:zpssssssfffdfhdffdssiuppu#yyyyrwwwq<ObMMMN",
"AMMMMM$0qryyrryr9y99s:s6suu4ssu4dfffsssssaipyyy;upupr9r9qqObbvvv",
"AMMMMM$$$$%%$$$$%%;;#;#o%## %## &$$$;%%%$$$$%;;z$%%%$%%%$;Obvvvv",
"AMMMMM$sdlkkkkkkkkkkkmm*mmmmmmmm5&&cvxxccccczcccccccccxvccObvnbv",
"AMMMMM+aalkkkkkkkkzzkk3m*m*m=m=m-&%cxcccxccccccccxcxcxvxzcObbvbv",
"AMMbMMosakkkkkzkzzzzkzzz6kkzzmm=-%%ccccxccccccczcxccxcxxccovvvvv",
"AMMMMMosskkkkkkzzzzzzzzzhkzkzz=m-<0ccccccccczccccccxcxxvxcOvvbvv",
"AMMnMnXNNNNNNNNNNNNNMMNNNNMMNVVVV00VBNNMMMNNNMNNMNMMNNMMNNocvvcc",
"AMnMMM rrupyypyppyyyyyppupuuuuuug::sasggaggagggagagpyppuppovccvv",
"AMMMnM rryygyyyyyyyyyyyyuuusuuuus##sgsaaagsagagaggyyyyyyyyXvvvcv",
"AMnMMMX  &&&&&:&::&:gyppuiuuuuuugoosaasuggasagapyypyyyyyyy ccvcc",
"AMMMMn rrkkkkkkkkkkc#;::;oo.#.......o#O*:;;7gappy;:;:%%::::vcvvc",
"&;&X..ww8kkkkkkkkkkx ncvbbbbccccccccccbzccc:9gpp kkkkkkkkka  o%:",
"CCZCCZ&w8zkkkkkkkkkc:nvbbbbbbzbccccczbbbccc;qqp kkkkkkkkkkXZCCAS",
"nbblcc&e8kkkkkkkkkkc:vbbbbbzzbbcccccbczbccc;78;kkkkkkkkkkk.NNCNN",
"Cblbbc&eyNNNNnNNMMNM:Mbbbbbzbbccccbbccbcccc;;;;kkkkkkkkkkkoMNVBB",
"nbbbxc$w8yyyyyyyyyps:VVVVVVVVVVVVVVVVVVVVVV;**:BNNNMMMMNNMOMNNNN",
"Cbbbll&weyyyyyyypypg:csssfsfssssssssssssspu;**;uyyyyypuuuyONNNNN",
"Bnbjll&reyyyyyyypypg bssfsfsssssssssssssspp;** uyyyyypruyy+NMNBN",
"Bljjbj%&&&&&&%%%%%#  csssssssssssssssussuii;=*.uyyyyyyeuyy+nnMMN",
"Blllll&dykllkzkxzkzkz  ;;;;;###ooooo#;;#;&#ik**.  ;%;%;;&&oMNnnN",
"Bxlbjl&tpxkkkkzkzkkzzzkzkkzzzzz.kkkkzzzzklkkz-----gg---fdeONnMnN",
"Bxxxll%dykxkkxkkzzzzzzzzzkzzzzzo-5mhzzkzklklkz----hg---fddOnnnnn",
"Blxxxl&tdlkkkkxzzzzzzzzzzzzzzzz:-5mskkkkkkkkkk---------fdd@nnnnn",
"Bxxlxl&dtlxxxkkzzzzzzkzkzkzzzzz>--=mkkkkkkzkkkz------dsddi@nnnnn",
"VlllbxOfkNNNNNNNNNNNNNNMNNNNNNM>--m=m-kkkkkkklj------ffffeOMbnnn",
"VlllllOq8pppppppppappaaiaaauaua>NNNNmvMbvvvnvnMfmmmmNNNNVVoMnbnn",
"Vjlllloqqupppappapppapppapapuap;9wwwww99wwwwwwww*==*wwwqqqObbnnn",
"Vhfllloqqupppppppppppauuapauaua;9rwwww9wwwwwwwwwq**qwww9qqObncnb",
"Vhhhhhoqquauyppupypapsuupupaaap;wwwwwwwwww8w:%%%O;$$$%;$%#oncbnn",
"nhhjhhX. ;;;:::::::&Ooo papuuau:wwwwwwwwwww&xzzzkkzzzzzkllonncbc",
"nhhhhhXeussghshhgfhgkkkk aauuut.9wwwwwwwrw:zzzzzzzzzzzzzlkonnxcb",
"nhjhhhXeehskshhgkhghhfkk;upaii.*owwww9ww99:zzzzzzzzzkzkzzlXnbbcb",
"njhhjh eeshkshhhshhhhhhh:a....===...X....X:zzzzzzxzzzzzxkz.nnNbb",
"nfhhhh eughshhhshhhghhhg>.*======..==33===:NNNNNNNNNNNNNNN.nNnbb",
"&&&X  ddivvvbvvvbvbvbvvv:**--m---;;142-1=->pgppppapappppyp7  X$&",
"AZCCCCOq7rrrrrrrrrrrrrrr;**------;;czzzz--:pppapaapppppppp CCCCZ",
"Avvvvv$77rr9y99r9r9rrrrr%*----52-;:zzczvz- pppypyppppppppy.lxxxl",
"Avvvvv$77rrr9rrrrrrrrrrr;*-----cz:,zxxvxzz-###%%#++#@ooXXXXlxllc",
"Cvvvnn%.X;;;:;:::::##   *----zxxz>>zcxvxczczzczzcxcxkkkhfiXclcxx",
"Cvvvcn$aizxzzzzzzkzzzcc------cczv>>cxxzxzczcczzcxxxxkjkffiXclxlc",
"Cvvvvv$dixxlxzxzxxxxxxx2-----cccv,,zxxczxxxxxxxxxzxzzkkffiOxxxcc",
"Cvvvvv$iixxxxzxzxxzxcxxx-----Mccv07NCNNNNNNNCNNNCNNNNMMVVVOxxxcc",
"Cvcvvv$jjNNNnnMMnvnnvvvvmmmmfMNNN07ggggggggaggggggggsusuieOxxxcx",
"Cvvvvn#qwppaapaaygppgygy**ggggggs;%ggggggggggagagpggpsuiueOxxxcv",
"Ccvvvv@qqppaapappapgaapy***yyygag&&gggggggggggaggpgaaaapeuOxxccc",
"Cvvvvv#wqpappaappsapppp******gggs  gssggggggssggggapauppuw$xcccc",
"Cvvvcv#8qaipaaapapaaaa****#%+###+#+oXX  +##%$aXoo%;%O+o   #ccccc",
"Cvvvxv# XXo##$$%$$$pqw**##kzkkkxxzzzzxxzzxzkx.vzkkkkzzkzzz#ccccv",
"Cvvvcc#gsbbcbbbbccM$qw$$kxxlxlllzzxkxzxkxllll:nzzzzzzzzczz$bcccc",
"CCCCCCCCCVCCCCCVCCZAA$nMnnnCCBVCVVVVVBVVBBVZ&AAASAAAAAAVAAAAAAAA",
"xvcvvxvvvvvcvvcvvvvvC;fhhhhhhhllllxxllccblbV&MnMbMMMMMMMMMMMNNMM",
"xvcccvvvvvvvvbcvvvvvC;hhjhhhjlllxxxlllccbxbZ&MMMMMbMMMMMMMMMMNNN",
"vxvvccccvvvvvvvvnvvvCXhjfhhhllxxxlljlxxbcccZoMbMMMMMMMMMMMMMMMMV",
"xvvxccccvcvvvvvvcvvvC.hhhjjhllllxxxbxxljccxZ MMMMMMMMMMMMMNNNVNM",
"cxxvcvcccvvvbbvvnnvvC fhjfhhlllxllxxxxllxccZ MbMMMbMMMMMMMMMVMNN",
"X@#+$@@$++$#%$$%&$%$+f..XXXoXO@@&$$&$&&&$;;;9 ....o#$$$$$;$$$$$;"
};
